<?xml version="1.0" encoding="utf-8"?>
<!-- Generator: Adobe Illustrator 15.0.0, SVG Export Plug-In . SVG Version: 6.00 Build 0)  -->
<!DOCTYPE svg PUBLIC "-//W3C//DTD SVG 1.1//EN" "http://www.w3.org/Graphics/SVG/1.1/DTD/svg11.dtd">
<svg version="1.1" id="Layer_1" xmlns="http://www.w3.org/2000/svg" xmlns:xlink="http://www.w3.org/1999/xlink" x="0px" y="0px"
	 width="612px" height="792px" viewBox="0 0 612 792" enable-background="new 0 0 612 792" xml:space="preserve">
<path fill="#E23236" d="M305.514,115.588c-161.879,0-293.419,129.812-296.251,291.015h0L55,422.666l259.334,262l1.867,23.347
	c158.698-5.63,285.631-136.034,285.631-296.107C601.832,248.253,469.165,115.588,305.514,115.588z"/>
<path fill="#B7B7B7" d="M450.375,490.94l25.096-29.873l16.729-72.892l-2.092-60.046H272.031L248.43,361.29L76.732,328.055
	L9.263,406.603c-0.031,1.765-0.067,3.53-0.067,5.303c0,163.653,132.666,296.319,296.318,296.319c3.637,0,7.252-0.089,10.856-0.219
	l149.987-173.375l-46.453-41.896L450.375,490.94z"/>
<path fill="#FFFFFF" d="M487.194,328.055l-45.706,152.802l-40.777-152.802h-42.57L312.435,481.53l-40.329-153.475H150.894v-52.876
	l-45.034,14.339v38.537H76.732v38.088h28.903c0,0,0,87.156,0,93.206c0,28.604,16.728,75.013,76.177,75.269l0.075-47.562
	c-16.879-2.09-30.994-16.326-30.994-39.135c0-18.82,0-81.106,0-81.106h88.5l47.947,167.815h53.772l36.969-131.07l35.176,131.07h53.1
	l64.527-206.576H487.194z"/>
<rect x="178.414" y="486.907" fill="#FFFFFF" width="118.001" height="47.76"/>
</svg>
